<?xml version="1.0" encoding="UTF-8"?>
<svg id="Layer_2" data-name="Layer 2" xmlns="http://www.w3.org/2000/svg" viewBox="0 0 362.18 319.92">
  <defs>
    <style>
      .cls-1 {
        fill: #0085ff;
        stroke-width: 0px;
      }
    </style>
  </defs>
  <g id="Layer_1-2" data-name="Layer 1">
    <path class="cls-1" d="M78.51,21.53c41.52,31.28,86.19,94.69,102.58,128.71v89.88c0-1.91-.74.25-2.32,4.91-8.56,25.22-41.98,123.63-118.4,44.96-40.24-41.42-21.61-82.85,51.64-95.35-41.9,7.15-89.02-4.67-101.94-51.02C6.34,130.28,0,48.16,0,37.07,0-18.49,48.55-1.03,78.51,21.53ZM283.67,21.53c-41.52,31.28-86.19,94.69-102.58,128.71v89.88c0-1.91.74.25,2.32,4.91,8.56,25.22,41.98,123.63,118.4,44.96,40.24-41.42,21.61-82.85-51.64-95.35,41.9,7.15,89.02-4.67,101.94-51.02,3.72-13.33,10.06-95.46,10.06-106.55,0-55.56-48.54-38.1-78.51-15.53Z"/>
  </g>
</svg>